HIERARCHY
ROOT Hips
{
 OFFSET 0.000000 0.000000 0.000000
 CHANNELS 6 Xposition Yposition Zposition Yrotation Xrotation Zrotation
 JOINT Chest
 {
  OFFSET 0.000000 9.764950 -1.084995
  CHANNELS 3 Yrotation Xrotation Zrotation
  JOINT Chest2
  {
   OFFSET 0.000000 10.818830 0.000000
   CHANNELS 3 Yrotation Xrotation Zrotation
   JOINT Chest3
   {
    OFFSET 0.000000 9.877666 -0.002167
    CHANNELS 3 Yrotation Xrotation Zrotation
    JOINT Chest4
    {
     OFFSET 0.000000 9.866636 -0.002169
     CHANNELS 3 Yrotation Xrotation Zrotation
     JOINT Neck
     {
      OFFSET 0.000000 13.822934 0.000000
      CHANNELS 3 Yrotation Xrotation Zrotation
      JOINT Head
      {
       OFFSET 0.000000 9.186386 0.004660
       CHANNELS 3 Yrotation Xrotation Zrotation
       End Site
       {
        OFFSET 0.000000 17.063601 0.000627
       }
      }
     }
     JOINT RightCollar
     {
      OFFSET -3.011809 7.749754 0.000000
      CHANNELS 3 Yrotation Xrotation Zrotation
      JOINT RightShoulder
      {
       OFFSET -14.096434 0.000000 0.000000
       CHANNELS 3 Yrotation Xrotation Zrotation
       JOINT RightElbow
       {
        OFFSET -30.197705 0.000000 0.000000
        CHANNELS 3 Yrotation Xrotation Zrotation
        JOINT RightWrist
        {
         OFFSET -24.683363 0.000000 0.000000
         CHANNELS 3 Yrotation Xrotation Zrotation
         End Site
         {
          OFFSET -18.425258 0.000000 0.000000
         }
        }
       }
      }
     }
     JOINT LeftCollar
     {
      OFFSET 3.011809 7.749754 0.000000
      CHANNELS 3 Yrotation Xrotation Zrotation
      JOINT LeftShoulder
      {
       OFFSET 14.096434 0.000000 0.000000
       CHANNELS 3 Yrotation Xrotation Zrotation
       JOINT LeftElbow
       {
        OFFSET 30.197705 0.000000 0.000000
        CHANNELS 3 Yrotation Xrotation Zrotation
        JOINT LeftWrist
        {
         OFFSET 24.683363 0.000000 0.000000
         CHANNELS 3 Yrotation Xrotation Zrotation
         End Site
         {
          OFFSET 18.425258 0.000000 0.000000
         }
        }
       }
      }
     }
    }
   }
  }
 }
 JOINT RightHip
 {
  OFFSET -8.037357 0.006404 -0.000712
  CHANNELS 3 Yrotation Xrotation Zrotation
  JOINT RightKnee
  {
   OFFSET 0.000000 -41.734021 -0.000512
   CHANNELS 3 Yrotation Xrotation Zrotation
   JOINT RightAnkle
   {
    OFFSET 0.000000 -40.719805 -0.000863
    CHANNELS 3 Yrotation Xrotation Zrotation
    JOINT RightToe
    {
     OFFSET 0.000000 -6.988584 15.862342
     CHANNELS 3 Yrotation Xrotation Zrotation
     End Site
     {
      OFFSET 0.000000 -1.553448 6.718690
     }
    }
   }
  }
 }
 JOINT LeftHip
 {
  OFFSET 8.037357 0.004204 -0.000467
  CHANNELS 3 Yrotation Xrotation Zrotation
  JOINT LeftKnee
  {
   OFFSET 0.000000 -41.734021 -0.000512
   CHANNELS 3 Yrotation Xrotation Zrotation
   JOINT LeftAnkle
   {
    OFFSET 0.000000 -40.719805 -0.000863
    CHANNELS 3 Yrotation Xrotation Zrotation
    JOINT LeftToe
    {
     OFFSET 0.000000 -6.988584 15.862342
     CHANNELS 3 Yrotation Xrotation Zrotation
     End Site
     {
      OFFSET 0.000000 -1.553448 6.718690
     }
    }
   }
  }
 }
}
MOTION
Frames: 15
Frame Time: 0.016667
10.865949 90.176596 -34.830684 -16.003296 11.931460 0.043688 0.063353 -2.667827 -0.439125 0.045543 -7.012067 -0.196173 0.045232 -1.191637 -0.191548 0.018908 4.942924 -0.144083 -5.644999 28.191337 -5.395896 -8.957502 16.182863 -8.465407 3.477029 5.570892 15.071245 -10.905720 -11.051815 73.445313 7.004182 9.841233 3.775941 1.123791 1.331298 -2.899550 -3.145358 5.422368 -13.087095 -1.097251 -3.083577 -73.041232 -6.470056 -8.027852 -3.219771 -8.108789 -7.953457 10.560263 2.342601 -34.027342 -1.679378 -5.191672 40.560005 1.768782 -11.258428 -6.474724 6.354238 -0.196359 -2.106217 -3.280584 5.818668 -14.028000 -2.711081 1.866742 15.277527 0.671569 3.155387 -12.764913 -1.557322 0.000178 0.024393 -0.046843
10.632141 90.162785 -33.975454 -15.760623 12.116825 -0.124372 -0.083201 -2.642115 -0.307708 -0.024691 -7.000544 -0.138197 -0.024499 -1.180114 -0.140704 -0.029413 4.951594 -0.105957 -5.708141 28.210496 -5.404664 -9.068785 16.216685 -8.469454 3.417463 5.633262 15.144175 -10.999129 -11.055673 73.532429 6.908937 9.920697 3.703018 1.205313 1.193052 -2.780449 -3.295976 5.182200 -12.900465 -1.105819 -3.069132 -73.046796 -7.442456 -8.181479 -3.791861 -8.277955 -8.028621 10.587203 2.492918 -33.767950 -1.239713 -5.155092 33.785305 0.943185 -9.917291 -5.136127 6.146146 -0.038230 -0.845898 -1.426852 5.567153 -13.639940 -2.498628 1.840788 15.235663 0.715520 3.235300 -13.144394 -1.650154 0.000191 0.048865 -0.093646
10.360598 90.122315 -33.039463 -15.413341 12.170428 -0.235719 -0.228438 -2.594637 -0.191359 -0.093745 -6.979413 -0.086930 -0.093059 -1.158989 -0.096449 -0.077370 4.967453 -0.072782 -5.785946 28.258278 -5.419334 -9.206514 16.302929 -8.482695 3.360733 5.749487 15.224903 -11.108439 -11.046558 73.639375 6.774074 10.063168 3.610521 1.247958 1.144104 -2.692787 -3.451367 4.974937 -12.726777 -1.122682 -2.995037 -73.052047 -8.397907 -8.287065 -4.389775 -8.412471 -8.069570 10.593765 2.652479 -33.054031 -0.856801 -4.632340 27.171434 0.371745 -8.665541 -3.783294 6.392544 -0.000000 0.000000 0.000000 5.381626 -13.066573 -2.329898 1.712654 15.206821 0.772059 3.281580 -13.566708 -1.736918 -0.000000 0.000000 -0.000000
10.039428 90.057351 -31.976590 -14.922359 12.020650 -0.280426 -0.383045 -2.500988 -0.092103 -0.166293 -6.937805 -0.043298 -0.165097 -1.117393 -0.060182 -0.128562 4.998657 -0.045616 -5.885067 28.345291 -5.443023 -9.382211 16.461176 -8.510165 3.297785 5.934607 15.306871 -11.244887 -11.017293 73.793792 6.587036 10.280634 3.462829 1.223247 1.258712 -2.674606 -3.641975 4.809705 -12.568247 -1.161123 -2.832135 -73.056855 -9.328963 -8.392354 -5.029471 -8.569271 -8.112189 10.625070 2.905350 -31.582103 -0.546066 -3.367916 20.467042 0.152105 -7.800668 -2.664244 7.258276 -0.016290 0.207001 0.336504 5.339186 -12.151188 -2.232212 1.424630 15.081615 0.866533 3.259440 -14.014173 -1.798037 0.000651 -0.151010 0.378878
9.680523 89.965728 -30.832956 -14.327054 11.738315 -0.272118 -0.536924 -2.386226 -0.008306 -0.237955 -6.886866 -0.006498 -0.236272 -1.066479 -0.030657 -0.179639 5.036840 -0.023509 -5.999072 28.460862 -5.472629 -9.584551 16.671966 -8.547165 3.237329 6.173106 15.397251 -11.396840 -10.975525 73.968171 6.357739 10.559269 3.293750 1.159044 1.461354 -2.690616 -3.837931 4.676319 -12.424469 -1.208761 -2.609732 -73.061542 -10.242139 -8.450283 -5.700194 -8.690649 -8.121260 10.634429 3.158538 -29.655949 -0.261511 -1.787865 13.931797 -0.135132 -7.097457 -1.605710 8.509527 -0.014627 0.098095 0.171320 5.360375 -11.051930 -2.166819 1.036718 14.968499 0.978685 3.204270 -14.504750 -1.852632 0.001477 -0.376950 0.897502
9.310408 89.835281 -29.679296 -13.772799 11.423897 -0.224845 -0.637828 -2.301164 0.057721 -0.285433 -6.849159 0.022643 -0.283440 -1.028799 -0.006336 -0.213120 5.065088 -0.005269 -6.115001 28.604306 -5.526244 -9.787504 16.933537 -8.628265 3.194297 6.426493 15.498569 -11.513002 -10.925004 74.087439 6.093171 10.917316 3.184375 1.054778 1.690164 -2.672043 -3.952066 4.572152 -12.303998 -1.226469 -2.380806 -73.061002 -11.111993 -8.377537 -6.375020 -8.750140 -8.074695 10.593681 3.380169 -28.097953 -0.091273 -0.520589 9.218066 -0.461164 -6.453702 -0.560636 9.636031 -0.000000 -0.000000 -0.000000 5.462227 -10.053878 -2.105014 0.595750 15.162004 1.055773 3.145808 -15.110606 -1.938035 0.000626 -0.665935 1.260926
8.938395 89.639019 -28.529006 -13.304737 11.092617 -0.107619 -0.659853 -2.265070 0.089551 -0.296513 -6.833171 0.036827 -0.294454 -1.012819 0.006722 -0.220361 5.077066 0.004551 -6.234900 28.786248 -5.619313 -9.992200 17.264790 -8.781389 3.150755 6.680587 15.608157 -11.569340 -10.835049 74.119755 5.792878 11.390623 3.188946 0.900391 1.929725 -2.603683 -3.941949 4.496151 -12.202571 -1.244115 -2.140576 -73.034148 -11.934741 -8.130250 -7.080362 -8.709050 -7.966799 10.479048 3.608102 -27.234433 -0.184012 0.113298 7.175196 -0.530205 -5.633504 0.608048 10.837179 -0.009417 0.040506 0.071243 5.690078 -9.186537 -2.068995 0.077225 15.708965 1.069895 3.070685 -15.947649 -2.073797 -0.002029 -0.929983 1.324766
8.555172 89.403933 -27.368691 -12.878634 10.728170 0.048616 -0.628979 -2.258409 0.103767 -0.283386 -6.830220 0.043349 -0.281418 -1.009859 0.014577 -0.209967 5.079284 0.010489 -6.356666 28.996616 -5.735783 -10.197346 17.647664 -8.978306 3.124083 6.948942 15.729876 -11.591200 -10.736051 74.097256 5.458129 11.944652 3.254753 0.707069 2.195398 -2.498480 -3.850223 4.449376 -12.124194 -1.232049 -1.893847 -72.999547 -12.713328 -7.754817 -7.804979 -8.604693 -7.807629 10.311914 3.802380 -26.732094 -0.412032 0.411256 6.917031 -0.324629 -4.764540 1.806612 11.837265 -0.017853 0.079055 0.143673 5.994909 -8.419700 -2.036461 -0.498770 16.561776 1.049535 2.993005 -16.900123 -2.238858 -0.006303 -1.255500 1.233850
8.159330 89.198832 -26.228907 -12.503912 10.385246 0.140514 -0.571023 -2.274190 0.147451 -0.259426 -6.837270 0.063161 -0.257625 -1.016898 0.036822 -0.190381 5.073995 0.027274 -6.461126 29.203611 -5.846616 -10.373343 18.024755 -9.169020 3.182360 7.234723 15.876773 -11.601193 -10.723230 74.039613 5.098833 12.492704 3.304223 0.508900 2.473244 -2.328658 -3.716904 4.433097 -12.089383 -1.060703 -1.706422 -73.009646 -13.429521 -7.298888 -8.468990 -8.524161 -7.597871 10.131527 3.822032 -26.426568 -0.475364 0.679793 7.479909 -0.047129 -4.280894 2.842277 11.390343 -0.000000 -0.000000 -0.000000 6.256463 -7.950902 -1.927910 -1.021230 17.874293 1.021876 2.982028 -17.692055 -2.411977 -0.012710 -1.890815 1.126609
7.738063 89.026797 -25.115629 -12.248906 10.098365 0.106352 -0.460784 -2.334472 0.244492 -0.214397 -6.864126 0.107074 -0.212909 -1.043742 0.085307 -0.153048 5.053840 0.063842 -6.537028 29.398262 -5.954533 -10.499463 18.379697 -9.359307 3.390015 7.589996 16.071202 -11.626968 -10.870653 73.922002 4.706725 13.077160 3.384064 0.319521 2.802317 -2.051334 -3.543909 4.480341 -12.098537 -0.575249 -1.645526 -73.066210 -14.114284 -6.662371 -9.128986 -8.473431 -7.279180 9.911598 3.486938 -26.395784 -0.184799 1.098002 8.896475 0.317101 -4.566281 3.885919 8.180425 0.048767 -0.345876 -0.615558 6.481227 -7.830169 -1.711031 -1.523379 19.711095 0.991818 3.105592 -18.453566 -2.567990 -0.018543 -2.690223 1.016544
7.304177 88.884747 -24.022882 -12.043484 9.834474 0.009917 -0.324318 -2.418196 0.370920 -0.158864 -6.901343 0.164291 -0.157762 -1.080943 0.148162 -0.106755 5.025922 0.111245 -6.595245 29.589806 -6.056166 -10.595651 18.729250 -9.541886 3.682812 7.961430 16.296476 -11.638622 -11.102385 73.765129 4.291329 13.654975 3.452346 0.132341 3.144813 -1.707574 -3.328729 4.560085 -12.148621 0.071377 -1.640082 -73.164031 -14.732949 -5.940597 -9.740588 -8.445088 -6.910175 9.675377 2.978155 -26.561102 0.262903 1.496573 11.136064 0.770253 -5.483702 4.740366 3.487532 0.056730 -0.823321 -1.442464 6.662112 -8.009685 -1.429977 -1.981919 22.007868 0.941550 3.295129 -19.053368 -2.739399 -0.024668 -3.799251 0.888186
6.894688 88.832257 -22.963293 -11.689000 9.547731 -0.064865 -0.264162 -2.453967 0.501717 -0.137378 -6.917235 0.223119 -0.136424 -1.096820 0.209172 -0.085965 5.014001 0.157205 -6.650460 29.772781 -6.114195 -10.694279 19.064356 -9.647843 3.935747 8.195423 16.501259 -11.572798 -11.290196 73.657880 3.881272 14.009642 3.296726 -0.052280 3.372043 -1.396727 -3.104014 4.578051 -12.257944 0.547690 -1.547798 -73.345497 -15.167808 -5.458766 -10.050605 -8.507877 -6.662064 9.539897 2.702673 -26.533743 0.587903 1.644242 13.145363 1.051172 -6.446534 4.768574 -0.002438 0.018450 -1.091375 -1.936975 6.659079 -8.540812 -1.126831 -2.196361 24.726958 0.878622 3.400318 -18.823263 -2.983276 -0.036415 -5.903001 0.827829
6.530066 88.914404 -21.934244 -11.107918 9.181294 -0.089172 -0.329870 -2.393564 0.635273 -0.171978 -6.890520 0.282569 -0.170787 -1.070110 0.265109 -0.107371 5.033995 0.199266 -6.699275 29.947816 -6.116402 -10.791640 19.387192 -9.655997 4.129128 8.193247 16.661660 -11.357586 -11.366408 73.658256 3.429135 14.047677 2.679641 -0.292691 3.431009 -1.072950 -2.843540 4.467949 -12.470082 0.745019 -1.292389 -73.688148 -15.355069 -5.391389 -9.833382 -8.774308 -6.629338 9.563187 2.960417 -26.172771 0.659233 1.372396 14.676548 0.987226 -7.048505 3.461452 -0.986569 0.000603 -0.916948 -1.793331 6.309797 -9.506500 -0.804084 -1.980001 27.994465 0.853983 3.334602 -17.416488 -3.516663 -0.085613 -9.651447 1.061339
6.189840 89.086111 -20.938354 -10.378833 8.791717 -0.095964 -0.471382 -2.285249 0.773198 -0.240533 -6.842688 0.343647 -0.238885 -1.022307 0.319228 -0.154243 5.069778 0.239918 -6.745480 30.113107 -6.075358 -10.891589 19.693824 -9.587347 4.282731 8.055317 16.792952 -11.066443 -11.400028 73.711245 2.977432 13.860342 1.839545 -0.535277 3.376370 -0.781516 -2.571704 4.299112 -12.745483 0.772581 -0.948718 -74.116207 -15.372188 -5.552360 -9.290132 -9.135529 -6.715473 9.687594 3.448724 -25.622398 0.624481 0.828530 15.977460 0.751663 -7.481215 1.401547 -0.768665 0.001573 -0.523523 -1.325810 5.766490 -10.821035 -0.465226 -1.494546 31.688042 0.888691 3.128206 -15.176297 -4.074904 -0.169178 -14.397864 1.315941
5.849614 89.271721 -19.996112 -9.537674 8.503070 -0.093330 -0.641050 -2.201798 0.895126 -0.320962 -6.806014 0.397459 -0.318785 -0.985673 0.364873 -0.210635 5.097173 0.274174 -6.814693 30.258780 -5.991468 -11.038117 19.965209 -9.437548 4.330380 7.927500 16.898649 -10.854697 -11.469192 73.737050 2.694143 13.513072 1.272711 -0.620789 3.235454 -0.763087 -2.398631 4.177529 -12.978802 0.623995 -0.606059 -74.445261 -15.303618 -5.720335 -8.797058 -9.329718 -6.801101 9.865006 3.682924 -24.928819 0.607856 0.255390 16.734684 0.593964 -7.781374 -0.269167 -0.561904 0.001889 -0.229962 -0.941126 5.367074 -12.285622 -0.159446 -1.059782 35.397240 0.950318 2.878159 -12.476348 -4.003523 -0.149490 -18.871912 0.905902
